<svg xmlns="http://www.w3.org/2000/svg" xmlns:xlink="http://www.w3.org/1999/xlink" preserveAspectRatio="xMidYMid" width="22" height="23" viewBox="0 0 22 23">
  <defs>
    <style>
      .cls-1 {
        fill: #fff;
        fill-rule: evenodd;
      }
    </style>
  </defs>
  <path d="M21.929,11.340 C21.956,11.366 21.971,11.397 21.994,11.425 L21.994,11.544 C21.979,11.547 21.955,11.547 21.954,11.553 C21.914,11.740 21.852,11.928 21.848,12.116 C21.847,12.252 21.797,12.345 21.732,12.444 C21.713,12.472 21.671,12.490 21.664,12.518 C21.615,12.688 21.526,12.821 21.372,12.908 C21.353,12.918 21.322,12.943 21.324,12.959 C21.356,13.220 21.107,13.259 20.986,13.399 C20.819,13.598 20.608,13.589 20.389,13.499 C20.378,13.496 20.361,13.505 20.349,13.509 C20.342,13.699 20.275,13.771 20.093,13.789 C20.057,13.791 20.023,13.821 19.987,13.821 C19.929,13.819 19.862,13.819 19.819,13.789 C19.797,13.773 19.800,13.677 19.824,13.645 C19.909,13.541 19.892,13.367 20.048,13.313 C20.058,13.309 20.067,13.274 20.062,13.262 C20.053,13.245 20.032,13.224 20.013,13.220 C19.929,13.206 19.777,13.337 19.764,13.428 C19.737,13.635 19.592,13.804 19.382,13.862 C19.393,13.900 19.412,13.940 19.418,13.979 C19.424,14.036 19.439,14.138 19.421,14.145 C19.341,14.176 19.252,14.196 19.168,14.188 C19.086,14.182 19.018,14.074 18.921,14.163 C18.908,14.174 18.845,14.151 18.821,14.129 C18.721,14.038 18.633,13.985 18.474,14.010 C18.298,14.036 18.108,13.960 17.925,13.929 C17.785,13.688 17.495,13.751 17.300,13.613 C17.119,13.483 17.048,13.361 17.123,13.141 C17.007,13.121 16.877,13.131 16.827,12.984 C16.818,12.956 16.768,12.943 16.735,12.922 C16.640,12.866 16.615,12.748 16.680,12.660 C16.756,12.561 16.757,12.471 16.662,12.383 C16.519,12.250 16.504,12.165 16.598,11.981 C16.657,11.867 16.745,11.766 16.713,11.618 C16.658,11.359 16.812,11.175 16.959,11.001 C17.040,10.901 17.172,10.845 17.275,10.764 C17.316,10.729 17.360,10.678 17.371,10.628 C17.399,10.488 17.422,10.357 17.539,10.255 C17.591,10.210 17.613,10.123 17.653,10.059 C17.680,10.013 17.704,9.952 17.747,9.936 C17.778,9.923 17.832,9.971 17.888,10.000 C17.843,10.054 17.812,10.089 17.783,10.123 L17.783,10.173 C17.856,10.174 17.934,10.194 18.000,10.176 C18.105,10.148 18.130,10.068 18.090,9.962 C18.080,9.938 18.098,9.892 18.117,9.869 C18.198,9.781 18.289,9.698 18.368,9.607 C18.435,9.526 18.503,9.494 18.603,9.542 C18.678,9.580 18.745,9.594 18.839,9.557 C18.893,9.537 18.991,9.634 19.075,9.681 C19.059,9.739 19.044,9.791 19.024,9.866 C18.941,9.834 18.869,9.807 18.797,9.778 C18.759,9.812 18.717,9.850 18.673,9.889 C18.970,10.089 19.223,9.956 19.344,9.719 C19.410,9.591 19.484,9.484 19.650,9.501 C19.676,9.505 19.705,9.488 19.727,9.474 C19.968,9.315 20.196,9.314 20.422,9.469 C20.449,9.486 20.484,9.489 20.514,9.502 C20.594,9.537 20.673,9.573 20.753,9.612 C20.797,9.634 20.841,9.660 20.883,9.688 C20.920,9.715 20.961,9.741 20.985,9.778 C20.992,9.787 20.943,9.832 20.924,9.866 C20.911,9.892 20.905,9.924 20.894,9.966 C20.968,9.949 21.031,9.945 21.082,9.918 C21.192,9.858 21.265,9.899 21.353,9.974 C21.402,10.017 21.499,10.003 21.547,10.045 C21.627,10.115 21.690,10.207 21.747,10.298 C21.766,10.334 21.749,10.394 21.749,10.444 C21.751,10.623 21.810,10.679 21.994,10.685 L21.994,10.922 C21.880,10.931 21.855,11.108 21.715,11.075 C21.715,11.075 21.696,11.113 21.702,11.124 C21.717,11.144 21.743,11.155 21.760,11.171 C21.818,11.227 21.875,11.281 21.929,11.340 ZM18.292,4.989 C18.378,5.251 18.279,5.503 18.251,5.760 C18.245,5.810 18.261,5.866 18.276,5.916 C18.323,6.071 18.295,6.145 18.150,6.217 C18.055,6.263 17.980,6.308 18.024,6.444 C18.038,6.492 17.991,6.558 17.976,6.621 C17.937,6.769 17.888,6.918 17.873,7.069 C17.851,7.284 17.756,7.364 17.559,7.298 C17.530,7.288 17.491,7.275 17.465,7.284 C17.368,7.317 17.307,7.294 17.260,7.199 C17.240,7.161 17.186,7.144 17.110,7.095 C17.110,7.209 17.116,7.276 17.107,7.345 C17.105,7.370 17.077,7.392 17.060,7.417 C17.039,7.400 17.017,7.386 17.002,7.367 C16.973,7.339 16.958,7.289 16.930,7.281 C16.905,7.276 16.843,7.326 16.846,7.343 C16.857,7.392 16.882,7.445 16.913,7.485 C16.936,7.513 16.981,7.524 17.035,7.552 C16.947,7.606 16.877,7.645 16.789,7.700 L16.789,7.867 C16.716,7.943 16.670,7.995 16.616,8.041 C16.516,8.133 16.416,8.133 16.303,8.048 C16.252,8.011 16.174,7.999 16.110,8.003 C16.093,8.006 16.077,8.104 16.068,8.157 C16.057,8.224 16.089,8.313 15.960,8.295 C15.941,8.292 15.886,8.381 15.891,8.423 C15.900,8.508 15.846,8.521 15.802,8.565 C15.743,8.621 15.685,8.686 15.652,8.758 C15.611,8.840 15.501,8.895 15.407,8.862 C15.349,8.839 15.290,8.821 15.229,8.811 C15.015,8.776 14.987,8.749 14.946,8.517 C14.819,8.534 14.688,8.560 14.557,8.562 C14.437,8.562 14.314,8.546 14.196,8.517 C14.021,8.478 13.850,8.425 13.679,8.373 C13.530,8.327 13.494,8.199 13.592,8.075 C13.678,7.970 13.641,7.855 13.511,7.848 C13.378,7.841 13.317,7.766 13.284,7.659 C13.250,7.540 13.201,7.451 13.077,7.402 C13.017,7.378 12.977,7.302 12.922,7.245 C13.033,7.084 13.049,6.910 12.983,6.724 C12.973,6.695 12.988,6.646 13.006,6.614 C13.063,6.515 13.135,6.422 13.194,6.322 C13.241,6.236 13.203,6.172 13.126,6.126 C13.009,6.054 13.009,5.971 13.129,5.900 C13.235,5.841 13.240,5.742 13.222,5.648 C13.205,5.534 13.240,5.475 13.338,5.421 C13.403,5.386 13.447,5.310 13.519,5.229 C13.423,5.215 13.366,5.206 13.348,5.203 C13.370,5.083 13.398,4.972 13.410,4.858 C13.420,4.775 13.494,4.715 13.577,4.739 C13.603,4.747 13.632,4.748 13.669,4.753 C13.679,4.593 13.720,4.461 13.874,4.383 C13.927,4.358 13.963,4.251 13.963,4.183 C13.963,4.027 14.039,3.917 14.145,3.834 C14.296,3.718 14.461,3.623 14.616,3.511 C14.704,3.445 14.785,3.373 14.884,3.289 C14.811,3.230 14.756,3.188 14.692,3.138 C14.729,3.033 14.805,2.932 14.956,2.919 C14.986,2.916 15.020,2.925 15.050,2.925 C15.159,2.923 15.268,2.921 15.379,2.916 C15.464,2.912 15.547,2.902 15.669,2.891 C15.745,2.840 15.866,2.762 15.985,2.683 C15.999,2.671 16.018,2.658 16.028,2.642 C16.163,2.394 16.358,2.463 16.558,2.536 C16.586,2.548 16.628,2.536 16.660,2.523 C16.817,2.464 16.962,2.450 17.085,2.594 C17.094,2.604 17.104,2.621 17.116,2.625 C17.355,2.675 17.483,2.906 17.701,2.995 C17.722,3.004 17.750,3.017 17.759,3.036 C17.845,3.215 17.937,3.393 18.012,3.577 C18.089,3.771 18.183,3.970 18.208,4.173 C18.239,4.425 18.426,4.661 18.295,4.932 C18.288,4.947 18.286,4.972 18.292,4.989 ZM13.085,9.365 C13.303,9.422 13.439,9.692 13.719,9.601 C13.839,9.562 13.901,9.635 13.900,9.774 C13.897,10.095 14.068,10.268 14.385,10.268 C14.493,10.268 14.562,10.305 14.602,10.404 C14.610,10.420 14.618,10.441 14.631,10.452 C14.835,10.599 14.839,10.812 14.845,11.040 C14.848,11.232 14.907,11.427 14.945,11.640 C14.887,11.699 14.872,11.749 14.985,11.838 C15.086,11.918 15.154,12.061 15.199,12.188 C15.271,12.407 15.360,12.632 15.309,12.871 C15.270,13.046 15.297,13.190 15.408,13.339 C15.470,13.420 15.458,13.553 15.505,13.652 C15.571,13.796 15.662,13.930 15.740,14.072 C15.759,14.110 15.792,14.167 15.778,14.196 C15.671,14.422 15.778,14.452 15.963,14.537 C16.086,14.593 16.211,14.660 16.311,14.750 C16.412,14.842 16.359,14.952 16.229,14.990 C16.184,15.004 16.137,15.079 16.123,15.134 C16.098,15.215 16.145,15.275 16.228,15.296 C16.291,15.312 16.357,15.417 16.321,15.442 C16.402,15.518 16.483,15.591 16.569,15.673 C16.588,15.737 16.615,15.816 16.637,15.901 C16.645,15.931 16.654,15.981 16.637,16.001 C16.564,16.088 16.598,16.163 16.636,16.253 C16.651,16.289 16.607,16.399 16.580,16.403 C16.483,16.413 16.453,16.485 16.400,16.544 C16.359,16.588 16.324,16.702 16.215,16.632 C16.202,16.623 16.137,16.662 16.131,16.686 C16.122,16.729 16.123,16.796 16.148,16.822 C16.247,16.920 16.198,17.014 16.162,17.118 C16.112,17.258 16.061,17.399 16.031,17.543 C16.002,17.690 15.788,17.927 15.648,17.927 C15.610,17.927 15.575,17.891 15.539,17.871 C15.529,17.877 15.514,17.887 15.515,17.887 C15.648,18.135 15.369,18.185 15.303,18.334 C15.206,18.548 15.022,18.717 14.976,18.961 C14.964,19.015 14.907,19.061 14.864,19.121 C14.785,19.048 14.715,18.983 14.648,18.919 C14.529,18.967 14.572,19.073 14.622,19.102 C14.761,19.179 14.652,19.259 14.642,19.337 C14.581,19.318 14.517,19.299 14.427,19.273 C14.426,19.276 14.400,19.299 14.397,19.301 C14.419,19.374 14.462,19.446 14.445,19.469 C14.398,19.532 14.323,19.574 14.260,19.623 C14.211,19.541 14.164,19.462 14.107,19.370 C14.074,19.388 14.019,19.424 13.935,19.477 C13.983,19.525 14.030,19.568 14.072,19.617 C14.127,19.678 14.133,19.745 14.043,19.770 C13.967,19.789 13.876,19.763 13.810,19.795 C13.733,19.830 13.661,19.897 13.616,19.969 C13.543,20.091 13.491,20.226 13.429,20.360 C13.313,20.306 13.251,20.309 13.226,20.441 C13.194,20.606 13.069,20.648 12.945,20.547 C12.923,20.563 12.882,20.579 12.882,20.596 C12.882,20.753 12.783,20.851 12.678,20.938 C12.595,21.011 12.498,21.074 12.397,21.112 C12.360,21.125 12.286,21.048 12.240,21.005 C12.200,20.965 12.182,20.877 12.116,20.947 C12.078,20.985 12.075,21.066 12.071,21.127 C12.069,21.176 12.089,21.228 12.102,21.304 L11.788,21.304 C11.780,21.319 11.775,21.334 11.771,21.349 C11.823,21.386 11.874,21.422 11.939,21.466 C11.929,21.494 11.917,21.538 11.901,21.589 C11.780,21.596 11.661,21.601 11.529,21.609 C11.506,21.555 11.499,21.473 11.370,21.522 C11.320,21.542 11.197,21.440 11.142,21.367 C11.079,21.280 11.030,21.293 10.965,21.339 C10.798,21.453 10.631,21.568 10.448,21.693 C10.573,21.729 10.691,21.770 10.812,21.791 C10.833,21.793 10.870,21.709 10.897,21.663 C10.915,21.637 10.928,21.608 10.941,21.579 C10.966,21.597 10.989,21.617 11.016,21.631 C11.094,21.676 11.167,21.778 11.273,21.642 C11.326,21.720 11.261,21.894 11.191,21.927 C11.094,21.975 10.999,22.026 10.905,22.080 C10.744,22.170 10.593,22.281 10.426,22.354 C10.254,22.429 10.067,22.469 9.885,22.523 C9.864,22.528 9.818,22.528 9.814,22.517 C9.763,22.422 9.700,22.442 9.636,22.492 C9.557,22.556 9.613,22.612 9.655,22.666 C9.662,22.672 9.664,22.682 9.684,22.727 C9.511,22.770 9.347,22.825 9.180,22.854 C8.979,22.889 8.773,22.904 8.571,22.931 C8.546,22.936 8.526,22.974 8.505,22.996 L8.329,22.996 C8.294,22.974 8.262,22.937 8.225,22.936 C8.065,22.923 7.902,22.919 7.743,22.910 C7.735,22.910 7.727,22.908 7.719,22.904 C7.577,22.834 7.431,22.770 7.293,22.691 C7.216,22.645 7.160,22.567 7.085,22.511 C7.033,22.471 6.969,22.446 6.876,22.394 C6.888,22.344 6.916,22.249 6.937,22.153 C6.943,22.124 6.938,22.076 6.917,22.059 C6.894,22.040 6.846,22.035 6.818,22.047 C6.587,22.124 6.457,22.043 6.340,21.822 C6.272,21.696 6.131,21.610 6.027,21.503 C5.973,21.444 5.940,21.334 5.881,21.319 C5.822,21.306 5.739,21.362 5.674,21.301 C5.593,21.228 5.521,21.145 5.435,21.079 C5.279,20.955 5.178,20.763 4.938,20.743 C4.823,20.730 4.717,20.621 4.601,20.574 C4.513,20.536 4.412,20.516 4.318,20.497 C4.169,20.468 4.047,20.415 3.914,20.318 C3.739,20.190 3.564,19.957 3.324,20.022 C3.114,20.077 2.960,19.920 2.772,19.967 C2.686,19.842 2.572,19.880 2.456,19.911 C2.437,19.917 2.406,19.910 2.389,19.895 C2.192,19.711 1.995,19.527 1.810,19.353 C1.729,19.387 1.651,19.447 1.615,19.428 C1.518,19.375 1.414,19.303 1.358,19.210 C1.274,19.073 1.223,18.915 1.172,18.759 C1.150,18.700 1.145,18.613 1.173,18.563 C1.244,18.431 1.193,18.384 1.105,18.338 C1.072,18.291 1.048,18.232 1.005,18.194 C0.895,18.095 0.857,17.956 0.910,17.802 C0.916,17.778 0.896,17.742 0.883,17.712 C0.819,17.549 0.713,17.399 0.771,17.206 C0.781,17.174 0.760,17.132 0.747,17.097 C0.722,17.022 0.691,16.950 0.656,16.865 C0.759,16.891 0.829,16.911 0.899,16.923 C0.916,16.925 0.953,16.895 0.959,16.874 C0.962,16.856 0.941,16.818 0.921,16.809 C0.852,16.775 0.797,16.719 0.696,16.734 C0.550,16.757 0.481,16.619 0.427,16.512 C0.444,16.468 0.461,16.426 0.475,16.384 C0.509,16.287 0.542,16.189 0.573,16.092 C0.595,16.024 0.620,15.960 0.507,15.942 C0.416,15.926 0.355,15.874 0.424,15.768 C0.436,15.748 0.453,15.715 0.445,15.701 C0.358,15.551 0.397,15.402 0.446,15.253 C0.456,15.227 0.453,15.186 0.437,15.165 C0.289,14.974 0.338,14.766 0.382,14.556 C0.392,14.497 0.358,14.413 0.320,14.366 C0.210,14.235 0.192,14.064 0.273,13.946 C0.246,13.886 0.086,13.703 0.116,13.607 C0.140,13.526 0.354,13.530 0.340,13.457 C0.338,13.453 0.347,13.441 0.352,13.435 C0.382,13.406 0.412,13.377 0.441,13.347 C0.393,13.334 0.346,13.326 0.298,13.311 C0.243,13.292 0.188,13.270 0.136,13.249 C0.160,13.203 0.178,13.148 0.215,13.110 C0.261,13.056 0.321,13.015 0.386,12.960 C0.323,12.876 0.251,12.784 0.182,12.689 C0.134,12.624 0.052,12.565 0.204,12.510 C0.265,12.488 0.310,12.297 0.310,12.297 C0.389,12.272 0.521,12.403 0.547,12.207 C0.573,12.008 0.382,12.168 0.298,12.153 L0.217,12.150 C0.200,12.128 0.261,11.944 0.321,11.886 C0.393,11.816 0.357,11.624 0.243,11.557 C0.153,11.504 0.103,11.477 0.224,11.402 C0.261,11.383 0.273,11.325 0.301,11.286 C0.350,11.218 0.402,11.151 0.453,11.082 C0.346,10.986 0.371,10.773 0.544,10.675 C0.656,10.615 0.670,10.535 0.692,10.423 C0.720,10.263 0.798,10.113 0.857,9.960 C0.932,9.769 1.113,9.790 1.262,9.740 C1.321,9.720 1.373,9.669 1.422,9.629 C1.620,9.475 1.807,9.309 2.037,9.197 C2.156,9.141 2.258,9.026 2.380,9.004 C2.600,8.962 2.767,8.798 3.015,8.814 C3.208,8.830 3.415,8.750 3.605,8.676 C3.731,8.628 3.833,8.519 3.964,8.424 C3.976,8.443 4.011,8.484 4.066,8.551 C4.080,8.458 4.156,8.386 4.177,8.438 C4.259,8.365 4.738,8.101 4.873,7.995 C4.877,7.993 4.846,7.806 5.070,7.773 C5.294,7.741 5.501,7.630 5.723,7.596 C5.921,7.565 6.126,7.579 6.328,7.587 C6.430,7.590 6.504,7.561 6.568,7.485 C6.651,7.390 6.752,7.336 6.884,7.345 C6.929,7.347 6.975,7.322 7.021,7.313 C7.058,7.306 7.098,7.289 7.131,7.294 C7.277,7.332 7.419,7.378 7.565,7.419 C7.602,7.429 7.652,7.450 7.677,7.436 C7.832,7.334 8.011,7.404 8.178,7.361 C8.300,7.330 8.443,7.361 8.574,7.384 C8.716,7.408 8.858,7.451 8.998,7.493 C9.039,7.504 9.073,7.535 9.109,7.543 C9.172,7.553 9.235,7.559 9.295,7.582 C9.410,7.626 9.511,7.663 9.638,7.598 C9.706,7.565 9.801,7.579 9.882,7.587 C10.005,7.598 10.172,7.576 10.240,7.649 C10.366,7.773 10.544,7.777 10.651,7.878 C10.867,8.074 10.724,8.325 10.983,8.428 C11.072,8.465 11.541,8.392 11.618,8.456 C11.697,8.522 11.764,8.602 11.889,8.576 C11.927,8.567 11.977,8.631 12.025,8.637 C12.153,8.658 12.282,8.665 12.411,8.681 C12.632,8.712 12.759,8.856 12.853,9.045 C12.867,9.072 12.890,9.095 12.911,9.119 C12.957,9.170 13.006,9.221 13.049,9.276 C13.067,9.302 13.065,9.359 13.085,9.365 ZM11.325,2.925 C11.331,3.062 11.340,3.224 11.229,3.347 C11.106,3.486 10.991,3.633 10.847,3.809 C10.854,3.868 10.927,3.994 10.788,4.091 C10.771,4.105 10.769,4.188 10.785,4.200 C10.889,4.281 10.824,4.382 10.837,4.472 C10.849,4.562 10.897,4.646 10.934,4.747 C10.787,4.724 10.762,4.816 10.774,4.932 C10.668,4.943 10.556,4.918 10.534,5.074 C10.529,5.100 10.459,5.117 10.411,5.142 C10.420,5.169 10.434,5.204 10.446,5.237 C10.175,5.513 10.175,5.513 10.201,5.576 C10.161,5.586 10.121,5.597 10.077,5.610 C10.098,5.670 10.116,5.726 10.134,5.782 C10.126,5.788 10.119,5.791 10.113,5.795 C10.049,5.713 9.981,5.634 9.915,5.552 C9.902,5.559 9.888,5.565 9.872,5.572 C9.883,5.632 9.880,5.701 9.906,5.754 C9.989,5.930 9.903,6.095 9.708,6.122 C9.587,6.139 9.437,6.125 9.347,6.190 C9.210,6.290 9.073,6.277 8.934,6.265 C8.790,6.251 8.635,6.226 8.509,6.161 C8.339,6.073 8.159,6.074 7.988,6.023 C7.876,5.989 7.769,5.893 7.690,5.799 C7.613,5.704 7.604,5.538 7.515,5.474 C7.315,5.329 7.263,5.102 7.147,4.922 C7.197,4.890 7.247,4.861 7.299,4.830 C7.291,4.813 7.286,4.799 7.280,4.783 C7.208,4.795 7.134,4.807 7.057,4.820 L7.057,4.658 C6.776,4.630 6.704,4.396 6.647,4.176 C6.608,4.022 6.622,3.847 6.824,3.774 C6.736,3.720 6.660,3.672 6.612,3.641 C6.654,3.420 6.692,3.230 6.730,3.040 C6.742,2.978 6.759,2.919 6.774,2.860 C6.777,2.845 6.783,2.833 6.782,2.817 C6.769,2.604 6.754,2.394 6.742,2.182 C6.741,2.161 6.745,2.135 6.756,2.116 C6.875,1.950 6.990,1.783 7.112,1.617 C7.128,1.596 7.151,1.563 7.174,1.559 C7.412,1.523 7.469,1.323 7.547,1.140 C7.566,1.098 7.589,1.056 7.612,1.014 C7.736,0.798 7.738,0.803 7.941,0.939 C8.023,0.994 8.122,1.015 8.212,1.056 C8.264,0.993 8.348,0.935 8.362,0.861 C8.376,0.796 8.314,0.715 8.272,0.610 C8.310,0.627 8.340,0.636 8.367,0.653 C8.428,0.692 8.484,0.764 8.549,0.771 C8.588,0.773 8.635,0.681 8.683,0.636 C8.701,0.616 8.729,0.603 8.754,0.596 C8.862,0.568 8.864,0.569 8.843,0.433 C8.808,0.444 8.774,0.458 8.745,0.470 C8.732,0.457 8.722,0.448 8.721,0.441 C8.718,0.393 8.721,0.343 8.715,0.295 C8.699,0.162 8.740,0.079 8.885,0.063 C8.904,0.062 8.923,0.025 8.942,0.004 L9.175,0.004 C9.286,0.085 9.386,0.190 9.509,0.245 C9.689,0.323 9.886,0.364 10.075,0.420 C10.087,0.424 10.103,0.437 10.113,0.431 C10.261,0.351 10.387,0.386 10.485,0.497 C10.440,0.538 10.395,0.600 10.335,0.633 C10.246,0.681 10.247,0.754 10.253,0.833 C10.255,0.861 10.258,0.903 10.276,0.913 C10.404,0.980 10.535,1.049 10.672,1.095 C10.690,1.104 10.748,0.998 10.797,0.935 C10.919,1.027 11.057,1.111 11.072,1.316 C11.083,1.451 11.159,1.578 11.190,1.713 C11.207,1.788 11.219,1.891 11.183,1.941 C11.048,2.122 11.134,2.290 11.184,2.463 C11.225,2.617 11.315,2.768 11.325,2.925 ZM4.547,5.045 C4.513,5.139 4.512,5.244 4.490,5.344 C4.477,5.414 4.473,5.492 4.436,5.547 C4.368,5.651 4.314,5.745 4.386,5.867 C4.392,5.878 4.391,5.896 4.387,5.909 C4.347,6.027 4.308,6.147 4.267,6.273 C4.223,6.240 4.184,6.210 4.115,6.160 C4.109,6.267 4.105,6.345 4.102,6.406 C4.070,6.476 4.017,6.538 4.017,6.600 C4.017,6.656 4.079,6.710 4.129,6.796 C4.101,6.859 3.877,6.804 3.951,7.009 C3.826,6.993 3.722,6.979 3.608,6.963 C3.597,6.978 3.578,7.030 3.556,7.030 C3.339,7.052 3.484,7.129 3.533,7.192 C3.470,7.344 3.321,7.234 3.228,7.292 C3.260,7.450 3.225,7.479 3.069,7.514 C2.809,7.575 2.534,7.593 2.278,7.685 C2.192,7.716 1.940,7.717 1.897,7.674 C1.804,7.579 1.712,7.488 1.626,7.404 C1.532,7.289 1.451,7.190 1.345,7.062 C1.310,7.110 1.278,7.153 1.244,7.199 C1.172,7.110 1.043,7.071 1.050,6.918 C1.051,6.872 0.999,6.817 0.964,6.773 C0.774,6.521 0.534,6.308 0.423,5.994 C0.395,5.908 0.279,5.854 0.219,5.773 C0.189,5.733 0.177,5.660 0.190,5.612 C0.239,5.457 0.285,5.306 0.224,5.143 C0.207,5.094 0.223,5.034 0.211,4.981 C0.168,4.775 0.121,4.570 0.069,4.367 C0.062,4.340 0.028,4.318 0.006,4.294 L0.006,4.028 C0.119,3.958 0.252,3.914 0.227,3.729 C0.217,3.664 0.280,3.592 0.310,3.522 C0.324,3.486 0.347,3.453 0.352,3.417 C0.392,3.053 0.576,2.794 0.908,2.650 C1.008,2.604 1.086,2.568 1.121,2.440 C1.151,2.344 1.237,2.263 1.374,2.259 C1.579,2.253 1.775,2.201 1.924,2.031 C2.038,1.902 2.256,1.894 2.401,1.992 C2.428,2.012 2.469,2.008 2.492,2.025 C2.540,2.064 2.663,2.046 2.611,2.174 C2.605,2.191 2.648,2.238 2.676,2.254 C2.696,2.263 2.732,2.235 2.758,2.222 C2.787,2.207 2.825,2.169 2.843,2.175 C3.034,2.260 3.221,2.352 3.409,2.445 C3.429,2.454 3.442,2.477 3.439,2.475 C3.427,2.553 3.390,2.628 3.414,2.660 C3.437,2.696 3.516,2.689 3.585,2.705 C3.644,2.804 3.719,2.929 3.805,3.071 C3.761,3.095 3.705,3.125 3.651,3.159 C3.613,3.180 3.577,3.207 3.539,3.233 C3.580,3.279 3.625,3.365 3.661,3.361 C3.763,3.354 3.858,3.307 3.989,3.266 C4.031,3.342 4.088,3.443 4.159,3.568 C4.227,3.872 3.573,3.882 3.709,3.742 C3.893,3.556 3.555,3.592 3.470,3.522 C3.447,3.503 3.396,3.495 3.369,3.507 C3.340,3.522 3.300,3.580 3.308,3.596 C3.380,3.716 3.295,3.830 3.307,3.944 C3.314,3.999 3.351,4.079 3.397,4.096 C3.644,4.195 3.904,4.227 4.166,4.166 C4.435,4.088 4.380,4.320 4.439,4.433 C4.448,4.447 4.430,4.480 4.418,4.501 C4.393,4.543 4.365,4.582 4.331,4.630 C4.584,4.693 4.635,4.815 4.547,5.045 Z" class="cls-1"/>
</svg>
